# xmcd
#
# Track frame offsets:
# 150
# 13474
# 31943
# 49498
# 66976
# 88605
# 108626
# 123988
# 143109
#
# Disc length: 2176 seconds
#
#
# Revision: 0
# Processed by: cddbd v1.5.1PL0 Copyright (c) Steve Scherf et al.
# Submitted via: FreeRIP 2.80 
#
DISCID=83087e09
DTITLE=Shania Twain - Up CD1
DYEAR=1900
DGENRE=Country
TTITLE0=Up!
TTITLE1=I'm Gonna Getcha Good!
TTITLE2=She's Just Not a Pretty Face
TTITLE3=Juanita
TTITLE4=Forever and for Always
TTITLE5=Ain't No Particular Way
TTITLE6=It Only Hurts When I'm Breathing
TTITLE7=Nah!
TTITLE8=(Wanna Get to Know You) That Good!
EXTD=
EXTT0=
EXTT1=
EXTT2=
EXTT3=
EXTT4=
EXTT5=
EXTT6=
EXTT7=
EXTT8=
PLAYORDER=
